<svg width="51" height="50" viewBox="0 0 51 50" fill="none" xmlns="http://www.w3.org/2000/svg">
<path fill-rule="evenodd" clip-rule="evenodd" d="M33.8184 31.4465H36.0999L50.511 45.7404L46.2079 50L31.7679 35.7347V33.4763L30.9882 32.6758C27.6959 35.4774 23.4216 37.1641 18.772 37.1641C8.40406 37.1641 0 28.8451 0 18.582C0 8.31904 8.40406 0 18.772 0C29.1399 0 37.5439 8.31904 37.5439 18.582C37.5439 23.1847 35.84 27.4157 33.0098 30.6747L33.8184 31.4465ZM5.7772 18.5812C5.7772 25.6995 11.5821 31.4457 18.7732 31.4457C25.9643 31.4457 31.7691 25.6995 31.7691 18.5812C31.7691 11.4628 25.9643 5.71669 18.7732 5.71669C11.5821 5.71669 5.7772 11.4628 5.7772 18.5812Z" fill="#4FD1C5"/>
</svg>
